<mxfile host="Electron" agent="Mozilla/5.0 (Macintosh; Intel Mac OS X 10_15_7) AppleWebKit/537.36 (KHTML, like Gecko) draw.io/28.0.4 Chrome/138.0.7204.97 Electron/37.2.1 Safari/537.36" version="28.0.4" pages="4">
  <diagram id="af1fea4a7d594add" name="Rabbitmq Graph Tb">
    <mxGraphModel dx="706" dy="604" grid="1" gridSize="10" guides="1" tooltips="1" connect="1" arrows="1" fold="1" page="1" pageScale="1" pageWidth="827" pageHeight="1169" math="0" shadow="0">
      <root>
        <mxCell id="0" />
        <mxCell id="1" parent="0" />
        <UserObject label="" mermaidData="{&quot;data&quot;:&quot;graph TB\n    subgraph \&quot;RabbitMQ Broker\&quot;\n        subgraph \&quot;Exchange Types\&quot;\n            DIRECT[Direct Exchange]\n            TOPIC[Topic Exchange]\n            FANOUT[Fanout Exchange]\n            HEADERS[Headers Exchange]\n        end\n        \n        subgraph \&quot;Queues\&quot;\n            Q1[Queue 1]\n            Q2[Queue 2]\n            Q3[Queue 3]\n            DLQ[Dead Letter Queue]\n        end\n        \n        subgraph \&quot;Routing\&quot;\n            RK[Routing Keys]\n            BIND[Bindings]\n            FILTER[Message Filters]\n        end\n    end\n    \n    subgraph \&quot;Publishers\&quot;\n        P1[Publisher 1]\n        P2[Publisher 2]\n    end\n    \n    subgraph \&quot;Consumers\&quot;\n        C1[Consumer 1]\n        C2[Consumer 2]\n        C3[Consumer 3]\n    end\n    \n    P1 --&gt; DIRECT\n    P1 --&gt; TOPIC\n    P2 --&gt; FANOUT\n    P2 --&gt; HEADERS\n    \n    DIRECT --&gt; Q1\n    TOPIC --&gt; Q2\n    FANOUT --&gt; Q1\n    FANOUT --&gt; Q2\n    FANOUT --&gt; Q3\n    HEADERS --&gt; Q3\n    \n    Q1 --&gt; C1\n    Q2 --&gt; C2\n    Q3 --&gt; C3\n    \n    Q1 --&gt; DLQ\n    Q2 --&gt; DLQ\n    Q3 --&gt; DLQ\n    \n    RK --&gt; BIND\n    BIND --&gt; FILTER\n    FILTER --&gt; DIRECT\n    FILTER --&gt; TOPIC&quot;}" id="744e76d049554fad">
          <mxCell style="shape=image;noLabel=1;verticalAlign=top;imageAspect=1;image=data:image/svg+xml,PHN2ZyB3aWR0aD0iMjAwIiBoZWlnaHQ9IjIwMCIgeG1sbnM9Imh0dHA6Ly93d3cudzMub3JnLzIwMDAvc3ZnIj48cmVjdCB3aWR0aD0iMjAwIiBoZWlnaHQ9IjIwMCIgZmlsbD0iI2Y5ZjlmOSIgc3Ryb2tlPSIjY2NjIi8+PHRleHQgeD0iMTAwIiB5PSIxMDAiIHRleHQtYW5jaG9yPSJtaWRkbGUiIGZvbnQtZmFtaWx5PSJBcmlhbCIgZm9udC1zaXplPSIxNCIgZmlsbD0iIzMzMyI+TWVybWFpZCBEaWFncmFtPC90ZXh0Pjwvc3ZnPg==;" vertex="1" parent="1">
            <mxGeometry x="260" y="130" width="200" height="200" as="geometry" />
          </mxCell>
        </UserObject>
      </root>
    </mxGraphModel>
  </diagram>
  <diagram id="d62813004dc649fa" name="Rabbitmq Graph Tb 2">
    <mxGraphModel dx="706" dy="604" grid="1" gridSize="10" guides="1" tooltips="1" connect="1" arrows="1" fold="1" page="1" pageScale="1" pageWidth="827" pageHeight="1169" math="0" shadow="0">
      <root>
        <mxCell id="0" />
        <mxCell id="1" parent="0" />
        <UserObject label="" mermaidData="{&quot;data&quot;:&quot;graph TB\n    subgraph \&quot;RabbitMQ Node\&quot;\n        BEAM[Erlang VM]\n        \n        subgraph \&quot;Core Components\&quot;\n            CONN[Connection Manager]\n            CHAN[Channel Manager]\n            EXCH[Exchange Manager]\n            QUEUE[Queue Manager]\n            ROUTE[Router]\n        end\n        \n        subgraph \&quot;Storage\&quot;\n            DISK[Disk Storage]\n            MEM[Memory Storage]\n        end\n        \n        subgraph \&quot;Management\&quot;\n            MGMT[Management Plugin]\n            STATS[Statistics]\n        end\n    end\n    \n    subgraph \&quot;Clients\&quot;\n        PUB[Publishers]\n        SUB[Consumers]\n        ADMIN[Admin Tools]\n    end\n    \n    PUB --&gt; CONN\n    SUB --&gt; CONN\n    ADMIN --&gt; MGMT\n    \n    CONN --&gt; CHAN\n    CHAN --&gt; EXCH\n    EXCH --&gt; ROUTE\n    ROUTE --&gt; QUEUE\n    \n    QUEUE --&gt; DISK\n    QUEUE --&gt; MEM\n    \n    MGMT --&gt; STATS&quot;}" id="e4ced2870b0743b1">
          <mxCell style="shape=image;noLabel=1;verticalAlign=top;imageAspect=1;image=data:image/svg+xml,PHN2ZyB3aWR0aD0iMjAwIiBoZWlnaHQ9IjIwMCIgeG1sbnM9Imh0dHA6Ly93d3cudzMub3JnLzIwMDAvc3ZnIj48cmVjdCB3aWR0aD0iMjAwIiBoZWlnaHQ9IjIwMCIgZmlsbD0iI2Y5ZjlmOSIgc3Ryb2tlPSIjY2NjIi8+PHRleHQgeD0iMTAwIiB5PSIxMDAiIHRleHQtYW5jaG9yPSJtaWRkbGUiIGZvbnQtZmFtaWx5PSJBcmlhbCIgZm9udC1zaXplPSIxNCIgZmlsbD0iIzMzMyI+TWVybWFpZCBEaWFncmFtPC90ZXh0Pjwvc3ZnPg==;" vertex="1" parent="1">
            <mxGeometry x="260" y="130" width="200" height="200" as="geometry" />
          </mxCell>
        </UserObject>
      </root>
    </mxGraphModel>
  </diagram>
  <diagram id="fd335a1484cc4641" name="Rabbitmq Graph Tb 3">
    <mxGraphModel dx="706" dy="604" grid="1" gridSize="10" guides="1" tooltips="1" connect="1" arrows="1" fold="1" page="1" pageScale="1" pageWidth="827" pageHeight="1169" math="0" shadow="0">
      <root>
        <mxCell id="0" />
        <mxCell id="1" parent="0" />
        <UserObject label="" mermaidData="{&quot;data&quot;:&quot;graph TB\n    subgraph \&quot;RabbitMQ Cluster\&quot;\n        subgraph \&quot;Node 1 (Disk)\&quot;\n            N1[RabbitMQ Node 1]\n            D1[Disk Storage]\n        end\n        \n        subgraph \&quot;Node 2 (RAM)\&quot;\n            N2[RabbitMQ Node 2]\n            D2[RAM Storage]\n        end\n        \n        subgraph \&quot;Node 3 (Disk)\&quot;\n            N3[RabbitMQ Node 3]\n            D3[Disk Storage]\n        end\n        \n        subgraph \&quot;Load Balancer\&quot;\n            LB[HAProxy/Nginx]\n        end\n    end\n    \n    subgraph \&quot;External Systems\&quot;\n        APP[Applications]\n        MONITOR[Monitoring]\n    end\n    \n    APP --&gt; LB\n    LB --&gt; N1\n    LB --&gt; N2\n    LB --&gt; N3\n    \n    N1 -.-&gt; N2\n    N2 -.-&gt; N3\n    N3 -.-&gt; N1\n    \n    N1 --&gt; D1\n    N2 --&gt; D2\n    N3 --&gt; D3\n    \n    N1 --&gt; MONITOR\n    N2 --&gt; MONITOR\n    N3 --&gt; MONITOR&quot;}" id="017975f8a93346f9">
          <mxCell style="shape=image;noLabel=1;verticalAlign=top;imageAspect=1;image=data:image/svg+xml,PHN2ZyB3aWR0aD0iMjAwIiBoZWlnaHQ9IjIwMCIgeG1sbnM9Imh0dHA6Ly93d3cudzMub3JnLzIwMDAvc3ZnIj48cmVjdCB3aWR0aD0iMjAwIiBoZWlnaHQ9IjIwMCIgZmlsbD0iI2Y5ZjlmOSIgc3Ryb2tlPSIjY2NjIi8+PHRleHQgeD0iMTAwIiB5PSIxMDAiIHRleHQtYW5jaG9yPSJtaWRkbGUiIGZvbnQtZmFtaWx5PSJBcmlhbCIgZm9udC1zaXplPSIxNCIgZmlsbD0iIzMzMyI+TWVybWFpZCBEaWFncmFtPC90ZXh0Pjwvc3ZnPg==;" vertex="1" parent="1">
            <mxGeometry x="260" y="130" width="200" height="200" as="geometry" />
          </mxCell>
        </UserObject>
      </root>
    </mxGraphModel>
  </diagram>
  <diagram id="721806c51faf47f1" name="Rabbitmq Graph Tb 4">
    <mxGraphModel dx="706" dy="604" grid="1" gridSize="10" guides="1" tooltips="1" connect="1" arrows="1" fold="1" page="1" pageScale="1" pageWidth="827" pageHeight="1169" math="0" shadow="0">
      <root>
        <mxCell id="0" />
        <mxCell id="1" parent="0" />
        <UserObject label="" mermaidData="{&quot;data&quot;:&quot;graph TB\n    subgraph \&quot;Production Environment\&quot;\n        subgraph \&quot;Availability Zone 1\&quot;\n            N1[Node 1 - Disk]\n            LB1[Load Balancer 1]\n        end\n        \n        subgraph \&quot;Availability Zone 2\&quot;\n            N2[Node 2 - RAM]\n            LB2[Load Balancer 2]\n        end\n        \n        subgraph \&quot;Availability Zone 3\&quot;\n            N3[Node 3 - Disk]\n            LB3[Load Balancer 3]\n        end\n        \n        subgraph \&quot;Monitoring Stack\&quot;\n            PROM[Prometheus]\n            GRAF[Grafana]\n            ALERT[AlertManager]\n        end\n        \n        subgraph \&quot;Management\&quot;\n            MGMT[RabbitMQ Management]\n            SHOVEL[Shovel Plugin]\n            FEDERATION[Federation Plugin]\n        end\n    end\n    \n    subgraph \&quot;Applications\&quot;\n        PROD[Producers]\n        CONS[Consumers]\n        ADMIN[Admin Tools]\n    end\n    \n    PROD --&gt; LB1\n    PROD --&gt; LB2\n    PROD --&gt; LB3\n    \n    CONS --&gt; LB1\n    CONS --&gt; LB2\n    CONS --&gt; LB3\n    \n    LB1 --&gt; N1\n    LB2 --&gt; N2\n    LB3 --&gt; N3\n    \n    N1 -.-&gt; N2\n    N2 -.-&gt; N3\n    N3 -.-&gt; N1\n    \n    N1 --&gt; PROM\n    N2 --&gt; PROM\n    N3 --&gt; PROM\n    \n    PROM --&gt; GRAF\n    PROM --&gt; ALERT\n    \n    ADMIN --&gt; MGMT&quot;}" id="9f4106c5e7ac44e7">
          <mxCell style="shape=image;noLabel=1;verticalAlign=top;imageAspect=1;image=data:image/svg+xml,PHN2ZyB3aWR0aD0iMjAwIiBoZWlnaHQ9IjIwMCIgeG1sbnM9Imh0dHA6Ly93d3cudzMub3JnLzIwMDAvc3ZnIj48cmVjdCB3aWR0aD0iMjAwIiBoZWlnaHQ9IjIwMCIgZmlsbD0iI2Y5ZjlmOSIgc3Ryb2tlPSIjY2NjIi8+PHRleHQgeD0iMTAwIiB5PSIxMDAiIHRleHQtYW5jaG9yPSJtaWRkbGUiIGZvbnQtZmFtaWx5PSJBcmlhbCIgZm9udC1zaXplPSIxNCIgZmlsbD0iIzMzMyI+TWVybWFpZCBEaWFncmFtPC90ZXh0Pjwvc3ZnPg==;" vertex="1" parent="1">
            <mxGeometry x="260" y="130" width="200" height="200" as="geometry" />
          </mxCell>
        </UserObject>
      </root>
    </mxGraphModel>
  </diagram>
</mxfile>